<?xml version="1.0" encoding="UTF-8"?>
<svg id="Layer_1" data-name="Layer 1" xmlns="http://www.w3.org/2000/svg" xmlns:xlink="http://www.w3.org/1999/xlink" viewBox="0 0 1020.76 782.81">
  <defs>
    <style>
      .cls-1 {
        fill: #f05751;
      }

      .cls-1, .cls-2 {
        stroke-width: 0px;
      }

      .cls-2 {
        fill: #12103e;
      }
    </style>
  </defs>
  <path class="cls-1" d="M250.58,782.75c-78.75,0-157.5,0-236.25,0-14.66,0-14.29-.04-14.22-14.66.22-47.25.1-94.5.11-141.75,0-14.72-.08-29.43,0-44.15.05-9.11,1.12-10.12,10.4-10.18,10.07-.07,20.14.02,30.21-.06,1.94-.02,4.45.8,5.54-1.57.89-1.92-.92-3.29-1.91-4.74-20.13-29.28-34.45-60.91-40.02-96.32C1.69,451.8-.15,434.38,0,416.55c.53-60.15.32-120.32.12-180.47-.06-17.32-.48-17.32,17.22-17.32,33.82,0,67.65.02,101.47,0,9.65,0,10.1-.46,10.11-10.05.05-30.21-.09-60.42.07-90.63.25-47.36,32.32-92.24,76.53-109.45,48.95-19.06,101.04-5.67,135.07,31.77,18.8,20.68,30.1,45.54,30.21,74.31.12,30.98.04,61.97.09,92.95.02,10.48.59,11.07,10.87,11.08,35.63.03,71.26-.01,106.89.03,11.14.01,12.1.97,12.1,11.79.02,83.65.02,167.31,0,250.96,0,10.71-.69,11.37-11.45,11.42-9.55.05-19.11-.08-28.66.07-2.42.04-5.82-1.36-7.02,1.46-1.03,2.42,1.43,4.77,2.9,6.8,9.44,13,17.56,26.78,23.76,41.59,9.4,22.45,15.64,45.62,18,70.05,5.17,53.62.99,107.31,2.55,160.94.24,8.31-4.5,8.97-10.92,8.96-79.78-.09-159.56-.06-239.35-.06ZM437.97,475.32c.25-1.23.69-2.41.69-3.59.03-61.18-.02-122.37.1-183.55.01-5.92-2.68-7.53-8.05-7.48-17.04.16-34.08.29-51.11-.06-6.91-.14-8.94,2.61-8.82,9.16.31,16.26-.1,32.53.18,48.79.12,6.6-2.14,9.29-8.95,9.12-14.19-.35-28.41-.43-42.59.02-7.38.23-9.36-2.88-9.24-9.64.29-15.74.12-31.49.08-47.24-.02-9.64-.44-10.08-10.06-10.09-32.79-.03-65.57-.01-98.36.01-11.17,0-12.13.94-12.19,12.51-.09,15.23-.2,30.47.05,45.69.1,6.25-2.14,8.83-8.57,8.7-14.45-.29-28.92-.34-43.37.02-6.92.17-8.99-2.73-8.89-9.22.25-16.52-.08-33.05.14-49.57.08-5.97-2.15-8.3-8.18-8.22-17.04.23-34.08.33-51.11-.04-7.01-.16-8.74,2.68-8.72,9.18.21,47.24.03,94.49.23,141.73.05,10.57,2.55,20.93,4.45,31.3,1.27,6.9,4.33,6.67,8.45,2.01,1.19-1.35,2.53-2.58,3.83-3.83,28.52-27.21,61.9-45.94,99.39-57.9,28.25-9.01,57.13-10.19,86.42-9.85,28.65.33,55.71,7.46,81.86,18.02,32.7,13.2,61.25,32.89,85.37,58.81,1.84,1.97,3.3,4.66,6.96,5.21ZM249.04,720.73c59.65,0,119.29,0,178.94,0,10.57,0,10.73-.18,10.74-10.92.02-24.53-.18-49.06.08-73.59.12-11.23-1.94-22.09-4.27-32.93-1.72-8-2.51-8.14-8.25-2.49-12.17,12-25.39,22.74-39.69,32.03-33.67,21.89-70.59,34.65-110.58,38.84-46.05,4.83-89.92-2.9-131.93-21.96-29.07-13.19-53.88-32.3-76.07-55.03-1.54-1.58-3-4.5-5.42-3.6-2.61.96-1.4,4.11-1.41,6.27-.08,37.7-.08,75.4-.07,113.1,0,10.08.2,10.27,10.53,10.27,59.13.02,118.26,0,177.39.01ZM246.69,612.11c36.15-.32,67.58-8.69,96.67-24.94,21.59-12.07,40.14-28.08,55.42-47.69,2.84-3.65,4.78-7.28,1.13-11.78-16.41-20.25-35.29-37.62-58.33-50.08-24.78-13.4-50.89-21.29-79.42-22.87-24.67-1.36-48.52.86-71.64,8.68-34.23,11.57-63.07,31.44-86.16,59.44-7.76,9.42-8.09,10.64-.38,19.66,38.15,44.69,86.72,67.7,142.72,69.59ZM250.17,218.76c16.78,0,33.57-.27,50.35.13,7.4.18,9.95-2.42,9.87-9.83-.31-28.4,0-56.8-.2-85.2-.07-9.83-1.34-19.61-6.03-28.51-16.06-30.51-43.75-39.32-71.57-30.83-28.68,8.75-42.45,30.24-42.86,60.35-.39,28.14.05,56.29-.19,84.43-.06,6.99,2.47,9.69,9.52,9.56,17.04-.31,34.08-.1,51.12-.08Z"/>
  <path class="cls-2" d="M301.29,533.49c1.34,26.42-20.95,50.79-51.03,50.92-28.6.12-51.52-23.19-51.58-51.82-.06-28.94,22.47-50.64,51.89-51.15,26.97-.47,52.59,23.6,50.72,52.05Z"/>
  <image width="342" height="516" transform="translate(764.26 123.22) scale(.75)" xlink:href="../../../WhatsApp Image 2024-10-03 at 16.15.39_ddbe1cf7.jpg"/>
</svg>